<svg id="visual" viewBox="0 0 960 30" width="960" height="30" xmlns="http://www.w3.org/2000/svg" xmlns:xlink="http://www.w3.org/1999/xlink" version="1.1"><rect x="0" y="0" width="960" height="30" fill="#0066FF"></rect><path d="M0 2L7.3 3.7C14.7 5.3 29.3 8.7 43.8 9.8C58.3 11 72.7 10 87.2 10.2C101.7 10.3 116.3 11.7 131 12C145.7 12.3 160.3 11.7 174.8 12.3C189.3 13 203.7 15 218.2 15C232.7 15 247.3 13 261.8 11.5C276.3 10 290.7 9 305.2 10.7C319.7 12.3 334.3 16.7 349 16.8C363.7 17 378.3 13 392.8 10.8C407.3 8.7 421.7 8.3 436.2 7.5C450.7 6.7 465.3 5.3 480 5.5C494.7 5.7 509.3 7.3 523.8 8.3C538.3 9.3 552.7 9.7 567.2 10C581.7 10.3 596.3 10.7 611 11.7C625.7 12.7 640.3 14.3 654.8 15.7C669.3 17 683.7 18 698.2 18C712.7 18 727.3 17 741.8 16.5C756.3 16 770.7 16 785.2 15.3C799.7 14.7 814.3 13.3 829 14C843.7 14.7 858.3 17.3 872.8 17.3C887.3 17.3 901.7 14.7 916.2 14C930.7 13.3 945.3 14.7 952.7 15.3L960 16L960 31L952.7 31C945.3 31 930.7 31 916.2 31C901.7 31 887.3 31 872.8 31C858.3 31 843.7 31 829 31C814.3 31 799.7 31 785.2 31C770.7 31 756.3 31 741.8 31C727.3 31 712.7 31 698.2 31C683.7 31 669.3 31 654.8 31C640.3 31 625.7 31 611 31C596.3 31 581.7 31 567.2 31C552.7 31 538.3 31 523.8 31C509.3 31 494.7 31 480 31C465.3 31 450.7 31 436.2 31C421.7 31 407.3 31 392.8 31C378.3 31 363.7 31 349 31C334.3 31 319.7 31 305.2 31C290.7 31 276.3 31 261.8 31C247.3 31 232.7 31 218.2 31C203.7 31 189.3 31 174.8 31C160.3 31 145.7 31 131 31C116.3 31 101.7 31 87.2 31C72.7 31 58.3 31 43.8 31C29.3 31 14.7 31 7.3 31L0 31Z" fill="#0066ff"></path><path d="M0 20L7.3 18C14.7 16 29.3 12 43.8 10.8C58.3 9.7 72.7 11.3 87.2 13.3C101.7 15.3 116.3 17.7 131 17.5C145.7 17.3 160.3 14.7 174.8 13.5C189.3 12.3 203.7 12.7 218.2 14.3C232.7 16 247.3 19 261.8 19.5C276.3 20 290.7 18 305.2 16.2C319.7 14.3 334.3 12.7 349 12C363.7 11.3 378.3 11.7 392.8 11.2C407.3 10.7 421.7 9.3 436.2 9.8C450.7 10.3 465.3 12.7 480 14.2C494.7 15.7 509.3 16.3 523.8 15.2C538.3 14 552.7 11 567.2 9.8C581.7 8.7 596.3 9.3 611 11.3C625.7 13.3 640.3 16.7 654.8 18.7C669.3 20.7 683.7 21.3 698.2 19.7C712.7 18 727.3 14 741.8 12C756.3 10 770.7 10 785.2 11.7C799.7 13.3 814.3 16.7 829 16.8C843.7 17 858.3 14 872.8 14.3C887.3 14.7 901.7 18.3 916.2 19.2C930.7 20 945.3 18 952.7 17L960 16L960 31L952.7 31C945.3 31 930.7 31 916.2 31C901.7 31 887.3 31 872.8 31C858.3 31 843.7 31 829 31C814.3 31 799.7 31 785.2 31C770.7 31 756.3 31 741.8 31C727.3 31 712.7 31 698.2 31C683.7 31 669.3 31 654.8 31C640.3 31 625.7 31 611 31C596.3 31 581.7 31 567.2 31C552.7 31 538.3 31 523.8 31C509.3 31 494.7 31 480 31C465.3 31 450.7 31 436.2 31C421.7 31 407.3 31 392.8 31C378.3 31 363.7 31 349 31C334.3 31 319.7 31 305.2 31C290.7 31 276.3 31 261.8 31C247.3 31 232.7 31 218.2 31C203.7 31 189.3 31 174.8 31C160.3 31 145.7 31 131 31C116.3 31 101.7 31 87.2 31C72.7 31 58.3 31 43.8 31C29.3 31 14.7 31 7.3 31L0 31Z" fill="#00a7f8"></path><path d="M0 25L7.3 24.5C14.7 24 29.3 23 43.8 22.5C58.3 22 72.7 22 87.2 21.8C101.7 21.7 116.3 21.3 131 20C145.7 18.7 160.3 16.3 174.8 15.8C189.3 15.3 203.7 16.7 218.2 16.5C232.7 16.3 247.3 14.7 261.8 13.8C276.3 13 290.7 13 305.2 13.2C319.7 13.3 334.3 13.7 349 15.3C363.7 17 378.3 20 392.8 21.3C407.3 22.7 421.7 22.3 436.2 22C450.7 21.7 465.3 21.3 480 19.8C494.7 18.3 509.3 15.7 523.8 15C538.3 14.3 552.7 15.7 567.2 16.2C581.7 16.7 596.3 16.3 611 17.5C625.7 18.7 640.3 21.3 654.8 22.3C669.3 23.3 683.7 22.7 698.2 21.5C712.7 20.3 727.3 18.7 741.8 19C756.3 19.3 770.7 21.7 785.2 21.3C799.7 21 814.3 18 829 17.3C843.7 16.7 858.3 18.3 872.8 19.2C887.3 20 901.7 20 916.2 20C930.7 20 945.3 20 952.7 20L960 20L960 31L952.7 31C945.3 31 930.7 31 916.2 31C901.7 31 887.3 31 872.8 31C858.3 31 843.7 31 829 31C814.3 31 799.7 31 785.2 31C770.7 31 756.3 31 741.8 31C727.3 31 712.7 31 698.2 31C683.7 31 669.3 31 654.8 31C640.3 31 625.7 31 611 31C596.3 31 581.7 31 567.2 31C552.7 31 538.3 31 523.8 31C509.3 31 494.7 31 480 31C465.3 31 450.7 31 436.2 31C421.7 31 407.3 31 392.8 31C378.3 31 363.7 31 349 31C334.3 31 319.7 31 305.2 31C290.7 31 276.3 31 261.8 31C247.3 31 232.7 31 218.2 31C203.7 31 189.3 31 174.8 31C160.3 31 145.7 31 131 31C116.3 31 101.7 31 87.2 31C72.7 31 58.3 31 43.8 31C29.3 31 14.7 31 7.3 31L0 31Z" fill="#00cfd1"></path><path d="M0 25L7.3 24.3C14.7 23.7 29.3 22.3 43.8 22.7C58.3 23 72.7 25 87.2 24.8C101.7 24.7 116.3 22.3 131 21.7C145.7 21 160.3 22 174.8 23.2C189.3 24.3 203.7 25.7 218.2 24.8C232.7 24 247.3 21 261.8 20.8C276.3 20.7 290.7 23.3 305.2 24.7C319.7 26 334.3 26 349 25.5C363.7 25 378.3 24 392.8 23.2C407.3 22.3 421.7 21.7 436.2 22.3C450.7 23 465.3 25 480 25.7C494.7 26.3 509.3 25.7 523.8 24.3C538.3 23 552.7 21 567.2 20.7C581.7 20.3 596.3 21.7 611 22.2C625.7 22.7 640.3 22.3 654.8 21.8C669.3 21.3 683.7 20.7 698.2 20.8C712.7 21 727.3 22 741.8 22C756.3 22 770.7 21 785.2 20.8C799.7 20.7 814.3 21.3 829 22.2C843.7 23 858.3 24 872.8 24.3C887.3 24.7 901.7 24.3 916.2 23.8C930.7 23.3 945.3 22.7 952.7 22.3L960 22L960 31L952.7 31C945.3 31 930.7 31 916.2 31C901.7 31 887.3 31 872.8 31C858.3 31 843.7 31 829 31C814.3 31 799.7 31 785.2 31C770.7 31 756.3 31 741.8 31C727.3 31 712.7 31 698.2 31C683.7 31 669.3 31 654.8 31C640.3 31 625.7 31 611 31C596.3 31 581.7 31 567.2 31C552.7 31 538.3 31 523.8 31C509.3 31 494.7 31 480 31C465.3 31 450.7 31 436.2 31C421.7 31 407.3 31 392.8 31C378.3 31 363.7 31 349 31C334.3 31 319.7 31 305.2 31C290.7 31 276.3 31 261.8 31C247.3 31 232.7 31 218.2 31C203.7 31 189.3 31 174.8 31C160.3 31 145.7 31 131 31C116.3 31 101.7 31 87.2 31C72.7 31 58.3 31 43.8 31C29.3 31 14.7 31 7.3 31L0 31Z" fill="#9ae06d"></path></svg>