<svg id="visual" viewBox="0 0 960 50" width="960" height="50" xmlns="http://www.w3.org/2000/svg" xmlns:xlink="http://www.w3.org/1999/xlink" version="1.1"><rect x="0" y="0" width="960" height="50" fill="#0c0c1b"></rect><path d="M0 9L56 12L113 8L169 27L226 28L282 10L339 22L395 25L452 17L508 29L565 11L621 19L678 7L734 9L791 28L847 22L904 27L960 22L960 51L904 51L847 51L791 51L734 51L678 51L621 51L565 51L508 51L452 51L395 51L339 51L282 51L226 51L169 51L113 51L56 51L0 51Z" fill="#bba13c"></path><path d="M0 11L56 19L113 11L169 31L226 30L282 23L339 19L395 15L452 23L508 30L565 18L621 26L678 30L734 11L791 18L847 19L904 26L960 16L960 51L904 51L847 51L791 51L734 51L678 51L621 51L565 51L508 51L452 51L395 51L339 51L282 51L226 51L169 51L113 51L56 51L0 51Z" fill="#c1a63f"></path><path d="M0 15L56 15L113 17L169 32L226 27L282 16L339 23L395 26L452 29L508 19L565 22L621 18L678 14L734 27L791 15L847 14L904 15L960 22L960 51L904 51L847 51L791 51L734 51L678 51L621 51L565 51L508 51L452 51L395 51L339 51L282 51L226 51L169 51L113 51L56 51L0 51Z" fill="#c7ac41"></path><path d="M0 32L56 22L113 17L169 24L226 19L282 25L339 30L395 28L452 20L508 17L565 25L621 17L678 21L734 28L791 30L847 26L904 17L960 20L960 51L904 51L847 51L791 51L734 51L678 51L621 51L565 51L508 51L452 51L395 51L339 51L282 51L226 51L169 51L113 51L56 51L0 51Z" fill="#cdb144"></path><path d="M0 34L56 34L113 33L169 28L226 22L282 24L339 31L395 20L452 34L508 33L565 28L621 30L678 20L734 25L791 24L847 32L904 29L960 31L960 51L904 51L847 51L791 51L734 51L678 51L621 51L565 51L508 51L452 51L395 51L339 51L282 51L226 51L169 51L113 51L56 51L0 51Z" fill="#d4b746"></path><path d="M0 29L56 31L113 29L169 37L226 33L282 35L339 32L395 33L452 36L508 37L565 23L621 24L678 33L734 25L791 27L847 36L904 26L960 37L960 51L904 51L847 51L791 51L734 51L678 51L621 51L565 51L508 51L452 51L395 51L339 51L282 51L226 51L169 51L113 51L56 51L0 51Z" fill="#dabc49"></path><path d="M0 27L56 27L113 28L169 28L226 32L282 30L339 27L395 35L452 30L508 37L565 32L621 30L678 28L734 33L791 36L847 35L904 31L960 29L960 51L904 51L847 51L791 51L734 51L678 51L621 51L565 51L508 51L452 51L395 51L339 51L282 51L226 51L169 51L113 51L56 51L0 51Z" fill="#e0c24b"></path><path d="M0 38L56 40L113 36L169 33L226 34L282 37L339 32L395 35L452 32L508 33L565 33L621 39L678 33L734 40L791 30L847 31L904 35L960 30L960 51L904 51L847 51L791 51L734 51L678 51L621 51L565 51L508 51L452 51L395 51L339 51L282 51L226 51L169 51L113 51L56 51L0 51Z" fill="#e6c74e"></path><path d="M0 39L56 36L113 37L169 39L226 36L282 35L339 42L395 41L452 40L508 38L565 33L621 37L678 34L734 41L791 42L847 40L904 38L960 41L960 51L904 51L847 51L791 51L734 51L678 51L621 51L565 51L508 51L452 51L395 51L339 51L282 51L226 51L169 51L113 51L56 51L0 51Z" fill="#eccd51"></path><path d="M0 43L56 42L113 39L169 37L226 44L282 43L339 40L395 37L452 41L508 38L565 40L621 43L678 42L734 43L791 41L847 38L904 37L960 42L960 51L904 51L847 51L791 51L734 51L678 51L621 51L565 51L508 51L452 51L395 51L339 51L282 51L226 51L169 51L113 51L56 51L0 51Z" fill="#f3d353"></path><path d="M0 42L56 45L113 44L169 44L226 41L282 44L339 44L395 43L452 46L508 40L565 45L621 44L678 42L734 44L791 45L847 41L904 40L960 45L960 51L904 51L847 51L791 51L734 51L678 51L621 51L565 51L508 51L452 51L395 51L339 51L282 51L226 51L169 51L113 51L56 51L0 51Z" fill="#f9d856"></path><path d="M0 47L56 46L113 44L169 46L226 47L282 47L339 44L395 45L452 44L508 45L565 47L621 43L678 47L734 44L791 44L847 47L904 45L960 45L960 51L904 51L847 51L791 51L734 51L678 51L621 51L565 51L508 51L452 51L395 51L339 51L282 51L226 51L169 51L113 51L56 51L0 51Z" fill="#ffde59"></path></svg>