<svg id="visual" viewBox="0 0 900 20" width="900" height="20" xmlns="http://www.w3.org/2000/svg" xmlns:xlink="http://www.w3.org/1999/xlink" version="1.1"><rect x="0" y="0" width="900" height="20" fill="#FFDE59"></rect><path d="M0 17L7.2 15.7C14.3 14.3 28.7 11.7 43 8.8C57.3 6 71.7 3 86 3.3C100.3 3.7 114.7 7.3 128.8 9.8C143 12.3 157 13.7 171.2 12.5C185.3 11.3 199.7 7.7 214 7.3C228.3 7 242.7 10 257 10C271.3 10 285.7 7 300 5.5C314.3 4 328.7 4 343 3.5C357.3 3 371.7 2 386 3.7C400.3 5.3 414.7 9.7 428.8 12.7C443 15.7 457 17.3 471.2 17.5C485.3 17.7 499.7 16.3 514 16C528.3 15.7 542.7 16.3 557 14.3C571.3 12.3 585.7 7.7 600 7.5C614.3 7.3 628.7 11.7 643 14.2C657.3 16.7 671.7 17.3 686 15.5C700.3 13.7 714.7 9.3 728.8 6.5C743 3.7 757 2.3 771.2 2.2C785.3 2 799.7 3 814 5.8C828.3 8.7 842.7 13.3 857 14.5C871.3 15.7 885.7 13.3 892.8 12.2L900 11L900 21L892.8 21C885.7 21 871.3 21 857 21C842.7 21 828.3 21 814 21C799.7 21 785.3 21 771.2 21C757 21 743 21 728.8 21C714.7 21 700.3 21 686 21C671.7 21 657.3 21 643 21C628.7 21 614.3 21 600 21C585.7 21 571.3 21 557 21C542.7 21 528.3 21 514 21C499.7 21 485.3 21 471.2 21C457 21 443 21 428.8 21C414.7 21 400.3 21 386 21C371.7 21 357.3 21 343 21C328.7 21 314.3 21 300 21C285.7 21 271.3 21 257 21C242.7 21 228.3 21 214 21C199.7 21 185.3 21 171.2 21C157 21 143 21 128.8 21C114.7 21 100.3 21 86 21C71.7 21 57.3 21 43 21C28.7 21 14.3 21 7.2 21L0 21Z" fill="#0066FF" stroke-linecap="round" stroke-linejoin="miter"></path></svg>