<?xml version="1.0" encoding="utf-8"?>
<!-- Generator: Adobe Illustrator 27.0.0, SVG Export Plug-In . SVG Version: 6.00 Build 0)  -->
<svg version="1.1" id="Camada_1" xmlns="http://www.w3.org/2000/svg" xmlns:xlink="http://www.w3.org/1999/xlink" x="0px" y="0px"
	 viewBox="0 0 1000 1000" style="enable-background:new 0 0 1000 1000;" xml:space="preserve">
<style type="text/css">
	.st0{fill:url(#SVGID_1_);}
	.st1{fill:url(#SVGID_00000173875366498476451120000004840363098058884002_);}
	.st2{fill:url(#SVGID_00000022545624405116635230000016821147351372557496_);}
</style>
<linearGradient id="SVGID_1_" gradientUnits="userSpaceOnUse" x1="16.4218" y1="417.9046" x2="697.1966" y2="417.9046">
	<stop  offset="0.1904" style="stop-color:#affc41"/>
	<stop  offset="1" style="stop-color:#affc41"/>
</linearGradient>
<path class="st0" d="M683.5,684.4l-33-32.1L412,420.1c-4.5-4.4-4.6-11.6-0.2-16.1L627,182.9l31.8-32.7c17.4-17.9,17-46.4-0.9-63.8
	l-0.2-0.2c-17.8-17.4-46.4-17-63.8,0.8l-31.8,32.6l-215.6,221c-4.4,4.5-11.6,4.6-16,0.2L213.6,227c-22.7-22.1-60.5-14.5-73,14.6l0,0
	c-7.3,17.1-3.4,37,10,50.1l116.8,113.9c4.5,4.4,4.6,11.6,0.2,16L29.3,665.9c-22.1,22.7-14.6,60.5,14.5,73l1.2,0.5
	c17.2,7.3,37.1,3.4,50.1-10l237.6-244.2c4.4-4.5,11.6-4.6,16.1-0.2L587,717.4l33,32.2c17.9,17.4,46.5,17,63.9-0.8l0.5-0.6
	C701.8,730.3,701.4,701.8,683.5,684.4z"/>
<linearGradient id="SVGID_00000158018106197026969950000016896477372341278857_" gradientUnits="userSpaceOnUse" x1="683.325" y1="372.2378" x2="742.0074" y2="372.2378">
	<stop  offset="0.1904" style="stop-color:#affc41"/>
	<stop  offset="1" style="stop-color:#affc41"/>
</linearGradient>
<circle style="fill:url(#SVGID_00000158018106197026969950000016896477372341278857_);" cx="712.7" cy="372.2" r="29.3"/>
<linearGradient id="SVGID_00000179629562618442995840000006639313380720814498_" gradientUnits="userSpaceOnUse" x1="445.4498" y1="500.0438" x2="983.5782" y2="500.0438">
	<stop  offset="0.1904" style="stop-color:#affc41"/>
	<stop  offset="1" style="stop-color:#affc41"/>
</linearGradient>
<path style="fill:url(#SVGID_00000179629562618442995840000006639313380720814498_);" d="M969.9,389.9l-8.3-8.1c0,0,0,0,0,0
	l-24.2-23.5L690.3,117.8L658,86.3c-17.9-17.4-46.6-17.1-64.1,0.8l0,0c-17.5,17.9-17.1,46.6,0.8,64.1l32.4,31.6l238.4,232.6
	c4.6,4.5,4.7,11.8,0.2,16.3L650.6,652.3L587,717.4L458.4,849.3c-22.2,22.8-14.7,60.8,14.6,73.4l0.8,0.3c17.2,7.4,37.3,3.4,50.4-10.1
	l128.2-131.8l63.6-65.3l222.8-228.9l32-32.9C988.2,436.1,987.8,407.3,969.9,389.9z"/>
<g>
</g>
<g>
</g>
<g>
</g>
<g>
</g>
<g>
</g>
<g>
</g>
</svg>
