<?xml version="1.0" encoding="utf-8"?>
<!-- Generator: Adobe Illustrator 27.0.0, SVG Export Plug-In . SVG Version: 6.00 Build 0)  -->
<svg version="1.1" id="Camada_1" xmlns="http://www.w3.org/2000/svg" xmlns:xlink="http://www.w3.org/1999/xlink" x="0px" y="0px"
	 viewBox="0 0 609.1 64.4" style="enable-background:new 0 0 609.1 64.4;" xml:space="preserve">
<style type="text/css">
	.st0{fill:#affc41;}
	.st1{fill:#2A2B2A;}
</style>
<rect x="126.8" y="1.6" class="st0" width="476.4" height="62.4"/>
<g>
	<path class="st1" d="M162.8,13.5v3.4h-17.9V32H160v3.4h-15.1v18.7h-4.1V13.5H162.8z"/>
	<path class="st1" d="M198,39.8h-26.3c0.1,2.4,0.7,4.5,1.7,6.2c1,1.7,2.4,3,4.1,3.9c1.7,0.9,3.6,1.3,5.6,1.3c2.6,0,4.9-0.6,6.7-1.9
		s3-3,3.6-5.2h4.3c-0.8,3.1-2.4,5.6-5,7.6c-2.5,2-5.7,2.9-9.6,2.9c-3,0-5.7-0.7-8-2c-2.4-1.3-4.2-3.2-5.5-5.7c-1.3-2.5-2-5.3-2-8.6
		c0-3.3,0.7-6.2,2-8.7c1.3-2.5,3.2-4.4,5.5-5.7c2.4-1.3,5.1-2,8.1-2s5.7,0.7,7.9,2c2.3,1.3,4,3.1,5.2,5.3c1.2,2.2,1.8,4.7,1.8,7.4
		C198.1,38,198.1,39.1,198,39.8z M192.6,30.5c-1-1.7-2.3-2.9-4-3.8c-1.7-0.9-3.6-1.3-5.6-1.3c-3,0-5.6,1-7.7,2.9
		c-2.1,1.9-3.3,4.7-3.5,8.2H194C194.1,34.1,193.6,32.1,192.6,30.5z"/>
	<path class="st1" d="M213.8,23.4c1.8-1.1,4.1-1.6,6.8-1.6V26h-1.1c-2.9,0-5.3,0.8-7.1,2.4c-1.8,1.6-2.7,4.2-2.7,8v17.7h-4.1V22.4
		h4.1V28C210.5,26,211.9,24.5,213.8,23.4z"/>
	<path class="st1" d="M250.8,25.3c2.4,2.3,3.6,5.7,3.6,10.2v18.6h-4V36c0-3.4-0.9-6.1-2.6-7.9c-1.7-1.8-4.1-2.7-7.1-2.7
		c-3.1,0-5.5,1-7.3,2.9c-1.8,1.9-2.7,4.8-2.7,8.5v17.3h-4.1V22.4h4.1v5.4c1-1.9,2.5-3.4,4.4-4.4c1.9-1,4-1.5,6.4-1.5
		C245.3,21.8,248.4,23,250.8,25.3z"/>
	<path class="st1" d="M263.5,29.6c1.3-2.5,3.1-4.4,5.4-5.7c2.3-1.3,4.9-2,7.8-2c3,0,5.6,0.7,7.8,2.1c2.2,1.4,3.8,3.2,4.7,5.3v-7h4.1
		v31.7h-4.1v-7c-1,2.2-2.6,4-4.8,5.4c-2.2,1.4-4.8,2.1-7.8,2.1c-2.9,0-5.5-0.7-7.8-2c-2.3-1.4-4.1-3.3-5.4-5.8
		c-1.3-2.5-1.9-5.3-1.9-8.6S262.2,32.1,263.5,29.6z M287.7,31.5c-1-1.9-2.5-3.4-4.3-4.5c-1.8-1-3.8-1.6-6-1.6c-2.2,0-4.3,0.5-6,1.5
		c-1.8,1-3.2,2.5-4.2,4.4s-1.5,4.2-1.5,6.8c0,2.6,0.5,4.9,1.5,6.8c1,2,2.4,3.4,4.2,4.5c1.8,1,3.8,1.5,6,1.5c2.2,0,4.2-0.5,6-1.6
		c1.8-1,3.2-2.5,4.3-4.5c1-1.9,1.6-4.2,1.6-6.7S288.7,33.4,287.7,31.5z"/>
	<path class="st1" d="M326.8,25.3c2.4,2.3,3.6,5.7,3.6,10.2v18.6h-4V36c0-3.4-0.9-6.1-2.6-7.9c-1.7-1.8-4.1-2.7-7.1-2.7
		c-3.1,0-5.5,1-7.3,2.9c-1.8,1.9-2.7,4.8-2.7,8.5v17.3h-4.1V22.4h4.1v5.4c1-1.9,2.5-3.4,4.4-4.4c1.9-1,4-1.5,6.4-1.5
		C321.3,21.8,324.4,23,326.8,25.3z"/>
	<path class="st1" d="M339.5,29.6c1.3-2.5,3.1-4.4,5.4-5.7s4.9-2,7.8-2c2.8,0,5.3,0.7,7.6,2c2.2,1.4,3.9,3.1,4.9,5.3V11.1h4.1v43
		h-4.1V47c-1,2.2-2.6,4-4.8,5.4c-2.2,1.4-4.8,2.1-7.8,2.1c-2.9,0-5.5-0.7-7.8-2c-2.3-1.4-4.1-3.3-5.4-5.8c-1.3-2.5-1.9-5.3-1.9-8.6
		S338.2,32.1,339.5,29.6z M363.7,31.5c-1-1.9-2.5-3.4-4.3-4.5c-1.8-1-3.8-1.6-6-1.6c-2.2,0-4.3,0.5-6,1.5c-1.8,1-3.2,2.5-4.2,4.4
		s-1.5,4.2-1.5,6.8c0,2.6,0.5,4.9,1.5,6.8c1,2,2.4,3.4,4.2,4.5c1.8,1,3.8,1.5,6,1.5c2.2,0,4.2-0.5,6-1.6c1.8-1,3.2-2.5,4.3-4.5
		c1-1.9,1.6-4.2,1.6-6.7S364.7,33.4,363.7,31.5z"/>
	<path class="st1" d="M384.5,52.6c-2.4-1.3-4.3-3.2-5.6-5.7c-1.4-2.5-2.1-5.3-2.1-8.6c0-3.3,0.7-6.2,2.1-8.6
		c1.4-2.5,3.3-4.4,5.7-5.7c2.4-1.3,5.1-2,8.1-2c3,0,5.7,0.7,8.1,2c2.4,1.3,4.3,3.2,5.7,5.7c1.4,2.5,2.1,5.3,2.1,8.6
		c0,3.3-0.7,6.1-2.1,8.6c-1.4,2.5-3.3,4.4-5.8,5.7s-5.2,2-8.1,2C389.5,54.6,386.8,53.9,384.5,52.6z M398.3,49.6
		c1.8-0.9,3.2-2.4,4.3-4.3c1.1-1.9,1.7-4.3,1.7-7.1s-0.5-5.1-1.6-7.1c-1.1-1.9-2.5-3.4-4.3-4.3c-1.8-0.9-3.7-1.4-5.8-1.4
		s-4,0.5-5.8,1.4c-1.8,0.9-3.2,2.4-4.3,4.3c-1.1,1.9-1.6,4.3-1.6,7.1s0.5,5.1,1.6,7.1c1.1,1.9,2.5,3.4,4.2,4.3
		c1.8,0.9,3.7,1.4,5.8,1.4S396.5,50.5,398.3,49.6z"/>
	<path class="st1" d="M432.6,23c1.7-3.2,4.1-5.6,7.1-7.4c3-1.8,6.4-2.6,10.1-2.6c4.5,0,8.4,1.1,11.7,3.2s5.6,5.2,7.1,9.1h-4.8
		c-1.2-2.8-2.9-4.9-5.3-6.4c-2.4-1.5-5.3-2.3-8.6-2.3c-3,0-5.7,0.7-8,2.1c-2.4,1.4-4.3,3.4-5.6,6c-1.4,2.6-2,5.6-2,9.1
		c0,3.4,0.7,6.5,2,9.1c1.4,2.6,3.2,4.6,5.6,6c2.4,1.4,5.1,2.1,8,2.1c3.4,0,6.2-0.8,8.6-2.3c2.4-1.5,4.2-3.7,5.3-6.4h4.8
		c-1.5,3.9-3.8,6.9-7.1,9c-3.3,2.1-7.1,3.2-11.6,3.2c-3.7,0-7.1-0.9-10.1-2.6c-3-1.8-5.4-4.2-7.1-7.4s-2.6-6.7-2.6-10.7
		C430,29.8,430.9,26.2,432.6,23z"/>
	<path class="st1" d="M482.5,52.6c-2.4-1.3-4.3-3.2-5.6-5.7c-1.4-2.5-2.1-5.3-2.1-8.6c0-3.3,0.7-6.2,2.1-8.6
		c1.4-2.5,3.3-4.4,5.7-5.7c2.4-1.3,5.1-2,8.1-2c3,0,5.7,0.7,8.1,2c2.4,1.3,4.3,3.2,5.7,5.7c1.4,2.5,2.1,5.3,2.1,8.6
		c0,3.3-0.7,6.1-2.1,8.6c-1.4,2.5-3.3,4.4-5.8,5.7s-5.2,2-8.1,2C487.6,54.6,484.9,53.9,482.5,52.6z M496.3,49.6
		c1.8-0.9,3.2-2.4,4.3-4.3c1.1-1.9,1.7-4.3,1.7-7.1s-0.5-5.1-1.6-7.1c-1.1-1.9-2.5-3.4-4.3-4.3c-1.8-0.9-3.7-1.4-5.8-1.4
		s-4,0.5-5.8,1.4c-1.8,0.9-3.2,2.4-4.3,4.3c-1.1,1.9-1.6,4.3-1.6,7.1s0.5,5.1,1.6,7.1c1.1,1.9,2.5,3.4,4.2,4.3
		c1.8,0.9,3.7,1.4,5.8,1.4S494.6,50.5,496.3,49.6z"/>
	<path class="st1" d="M516,52c-2.3-1.7-3.6-4-3.9-6.9h4.2c0.2,1.8,1,3.2,2.5,4.3s3.5,1.7,6,1.7c2.2,0,3.9-0.5,5.2-1.6
		c1.3-1,1.9-2.3,1.9-3.9c0-1.1-0.3-2-1-2.7s-1.6-1.2-2.6-1.7s-2.5-0.8-4.3-1.3c-2.4-0.6-4.3-1.2-5.8-1.9c-1.5-0.6-2.7-1.5-3.7-2.8
		s-1.5-2.9-1.5-4.9c0-1.5,0.5-3,1.4-4.3s2.2-2.4,4-3.1c1.7-0.8,3.6-1.2,5.8-1.2c3.4,0,6.2,0.9,8.3,2.6c2.1,1.7,3.2,4.1,3.4,7.1h-4.1
		c-0.1-1.9-0.8-3.4-2.2-4.5c-1.3-1.1-3.2-1.7-5.5-1.7c-2.1,0-3.7,0.5-5,1.5S517,29,517,30.5c0,1.2,0.4,2.3,1.1,3.1
		c0.8,0.8,1.7,1.4,2.8,1.9c1.1,0.4,2.6,0.9,4.5,1.5c2.3,0.6,4.1,1.2,5.5,1.8c1.4,0.6,2.5,1.4,3.5,2.6c1,1.1,1.5,2.6,1.5,4.5
		c0,1.7-0.5,3.2-1.4,4.6s-2.2,2.4-3.9,3.2c-1.7,0.8-3.6,1.2-5.8,1.2C521.2,54.6,518.3,53.7,516,52z"/>
	<path class="st1" d="M548.9,25.8v19.7c0,1.9,0.4,3.3,1.1,4c0.7,0.7,2,1.1,3.9,1.1h3.7v3.5h-4.4c-2.9,0-5-0.7-6.4-2
		s-2.1-3.5-2.1-6.6V25.8h-4.4v-3.4h4.4v-8h4.1v8h8.7v3.4H548.9z"/>
	<path class="st1" d="M564.4,29.6c1.3-2.5,3.1-4.4,5.4-5.7c2.3-1.3,4.9-2,7.8-2c3,0,5.6,0.7,7.8,2.1c2.2,1.4,3.8,3.2,4.7,5.3v-7h4.1
		v31.7h-4.1v-7c-1,2.2-2.6,4-4.8,5.4c-2.2,1.4-4.8,2.1-7.8,2.1c-2.9,0-5.5-0.7-7.8-2c-2.3-1.4-4.1-3.3-5.4-5.8
		c-1.3-2.5-1.9-5.3-1.9-8.6S563.1,32.1,564.4,29.6z M588.6,31.5c-1-1.9-2.5-3.4-4.3-4.5c-1.8-1-3.8-1.6-6-1.6c-2.2,0-4.3,0.5-6,1.5
		c-1.8,1-3.2,2.5-4.2,4.4s-1.5,4.2-1.5,6.8c0,2.6,0.5,4.9,1.5,6.8c1,2,2.4,3.4,4.2,4.5c1.8,1,3.8,1.5,6,1.5c2.2,0,4.2-0.5,6-1.6
		c1.8-1,3.2-2.5,4.3-4.5c1-1.9,1.6-4.2,1.6-6.7S589.6,33.4,588.6,31.5z"/>
</g>
<g>
	<path class="st0" d="M76.1,1.7c-0.6,0-1.3,0-1.9,0H13.8C10.1,1.7,7,4.7,7,8.5v50.4c0,2.8,2.3,5.1,5.1,5.1s5.1-2.3,5.1-5.1V39h13
		c2.5,0,4.5-2,4.5-4.5c0-2.5-2-4.5-4.5-4.5h-13V9.6h36.5c-6.4,5.7-10.4,14-10.4,23.2c0,12.2,7.1,22.8,17.3,27.9
		c2.7,1.3,5.8-0.7,5.8-3.6V57c0-1.5-0.9-2.9-2.2-3.6c-7.6-3.9-12.8-11.8-12.7-21c0.2-12,10-22,21.9-22.6c13.2-0.6,24.2,9.9,24.2,23
		c0,9.1-5.2,16.9-12.8,20.7c-1.4,0.7-2.3,2.1-2.3,3.6c0,3,3.1,4.9,5.8,3.6c10.3-5.1,17.4-15.8,17.3-28.1
		C105.5,16.4,92.4,2.6,76.1,1.7z"/>
	<ellipse transform="matrix(0.7071 -0.7071 0.7071 0.7071 -1.3806 62.3343)" class="st0" cx="74.6" cy="32.8" rx="17.6" ry="17.6"/>
</g>
<g>
</g>
<g>
</g>
<g>
</g>
<g>
</g>
<g>
</g>
<g>
</g>
</svg>
