<svg class="border shadow-md" viewBox="0 0 760.32 760.32" xmlns="http://www.w3.org/2000/svg" preserveAspectRatio="none" style="width: 760.32px; height: 760.32px;"><rect class="bg" id="bg" x="0" y="0" width="760.32" height="760.32" fill="#00c43c"></rect><g transform="rotate(0 380.16 380.16)"><path d="M -960.32 -46.03 S -663.00 -119.03
            0.00 -46.03 470.16 -84.05
            960.32 -46.03 1430.48 -116.03
            1920.64 -46.03 h 110 V 960.32 H -960.32 Z" fill="#01C9A4" id="-1"></path><path d="M -960.32 30.00 S -780.00 -8.02
            0.00 30.00 311.32 -40.00
            960.32 30.00 965.64 -11.00
            1920.64 30.00 h 110 V 960.32 H -960.32 Z" fill="#00b898" id="0"></path><path d="M -960.32 106.03 S -699.00 68.02
            0.00 106.03 -5.68 49.03
            960.32 106.03 1430.48 68.02
            1920.64 106.03 h 110 V 960.32 H -960.32 Z" fill="#00a78c" id="1"></path><path d="M -960.32 182.06 S -490.16 130.06
            0.00 182.06 429.32 144.05
            960.32 182.06 1430.48 144.05
            1920.64 182.06 h 110 V 960.32 H -960.32 Z" fill="#009680" id="2"></path><path d="M -960.32 258.10 S -921.00 201.10
            0.00 258.10 470.16 217.10
            960.32 258.10 976.64 202.10
            1920.64 258.10 h 110 V 960.32 H -960.32 Z" fill="#008574" id="3"></path><path d="M -960.32 334.13 S -618.00 281.13
            0.00 334.13 398.32 267.13
            960.32 334.13 1430.48 296.11
            1920.64 334.13 h 110 V 960.32 H -960.32 Z" fill="#007468" id="4"></path><path d="M -960.32 410.16 S -899.00 351.16
            0.00 410.16 265.32 348.16
            960.32 410.16 1430.48 354.16
            1920.64 410.16 h 110 V 960.32 H -960.32 Z" fill="#00635c" id="5"></path><path d="M -960.32 486.19 S -813.00 448.18
            0.00 486.19 60.32 414.19
            960.32 486.19 1430.48 448.18
            1920.64 486.19 h 110 V 960.32 H -960.32 Z" fill="#005250" id="6"></path><path d="M -960.32 562.22 S -490.16 493.22
            0.00 562.22 354.32 524.21
            960.32 562.22 1430.48 488.22
            1920.64 562.22 h 110 V 960.32 H -960.32 Z" fill="#004144" id="7"></path><path id="8" d="M -960.32 638.26 S -490.16 580.26
            0.00 638.26 162.32 600.24
            960.32 638.26 1165.64 600.24
            1920.64 638.26 h 110 V 960.32 H -960.32 Z" fill="#003038"></path><path id="9" d="M -960.32 714.29 S -490.16 655.29
            0.00 714.29 417.32 676.27
            960.32 714.29 1430.48 676.27
            1920.64 714.29 h 110 V 960.32 H -960.32 Z" fill="#001f2c"></path></g></svg>