<?xml version="1.0" encoding="utf-8"?>
<!-- Generator: Adobe Illustrator 27.0.0, SVG Export Plug-In . SVG Version: 6.00 Build 0)  -->
<svg version="1.1" id="Camada_1" xmlns="http://www.w3.org/2000/svg" xmlns:xlink="http://www.w3.org/1999/xlink" x="0px" y="0px"
	 viewBox="0 0 50 50" style="enable-background:new 0 0 50 50;" xml:space="preserve">
<style type="text/css">
	.st0{display:none;fill:none;stroke:#AFFC41;stroke-width:3;stroke-linecap:round;stroke-linejoin:round;stroke-miterlimit:10;}
	.st1{fill:#AFFC41;}
</style>
<rect x="2.9" y="9.7" class="st0" width="44.1" height="28.9"/>
<polygon class="st0" points="25,24.4 14,17 2.9,9.7 25,9.7 47.1,9.7 36,17 "/>
<g id="XMLID_470_">
	<path class="st1" d="M25,2.3C13.3,2.3,3.7,12,3.7,23.8c0,3.8,1,7.6,2.9,10.9L3,45.8c-0.1,0.2,0,0.4,0.1,0.6
		c0.1,0.1,0.3,0.2,0.4,0.2c0.1,0,0.1,0,0.2,0l11.2-3.6c3.1,1.7,6.6,2.6,10.1,2.6c11.7,0,21.3-9.7,21.3-21.6C46.3,12,36.7,2.3,25,2.3
		z M25,40.9c-3.3,0-6.5-1-9.3-2.8C15.6,38,15.5,38,15.4,38c-0.1,0-0.1,0-0.2,0l-5.6,1.8l1.8-5.5c0.1-0.2,0-0.4-0.1-0.5
		c-2.1-2.9-3.2-6.4-3.2-10c0-9.4,7.6-17.1,16.9-17.1c9.3,0,16.9,7.7,16.9,17.1C41.8,33.3,34.3,40.9,25,40.9z"/>
</g>
<g id="XMLID_00000091699179526422255350000003746724074175232675_">
	<path class="st1" d="M34.4,28.1c-0.1,0-3.2-1.6-3.8-1.8c-0.2-0.1-0.5-0.2-0.7-0.2c-0.4,0-0.8,0.2-1.1,0.6c-0.3,0.5-1.3,1.6-1.6,2
		c0,0-0.1,0.1-0.1,0.1c0,0-0.5-0.2-0.7-0.3c-3.4-1.5-6-5.1-6.3-5.7c-0.1-0.1-0.1-0.1-0.1-0.1c0,0,0.1-0.2,0.2-0.2
		c0.2-0.2,0.4-0.4,0.5-0.6c0.1-0.1,0.2-0.2,0.3-0.3c0.3-0.3,0.4-0.6,0.5-0.8l0.1-0.1c0.3-0.7,0-1.2,0-1.4c-0.1-0.2-1.4-3.4-1.6-3.8
		c-0.3-0.8-0.8-1.2-1.4-1.2c-0.1,0,0,0-0.2,0c-0.3,0-1.9,0.2-2.6,0.7c-0.8,0.5-2,2-2,4.8c0,2.5,1.5,4.8,2.2,5.7c0,0,0,0.1,0.1,0.1
		c2.5,3.7,5.6,6.5,8.8,7.8c3.1,1.2,4.5,1.4,5.3,1.4c0,0,0,0,0,0c0.3,0,0.6,0,0.9-0.1l0.2,0c1.1-0.1,3.4-1.3,3.9-2.8
		c0.4-1.2,0.5-2.5,0.2-2.9C35.1,28.5,34.8,28.3,34.4,28.1z"/>
</g>
<g>
</g>
<g>
</g>
<g>
</g>
<g>
</g>
<g>
</g>
</svg>
